<svg xmlns="http://www.w3.org/2000/svg" width="400" height="400" viewBox="0 0 400 400" version="1.1">
	<path d="M 184.589 28.100 C 110.542 35.906, 50.541 95.173, 41.946 169 C 40.339 182.798, 41.296 205.571, 43.984 217.500 C 46.251 227.561, 51.743 244.723, 52.930 245.457 C 53.354 245.719, 54.279 244.185, 54.984 242.048 C 56.132 238.569, 55.992 237.184, 53.648 228.831 C 49.934 215.593, 49.093 210.974, 48.096 198.325 C 44.643 154.552, 60.894 111.052, 92.486 79.500 C 114.827 57.188, 140.118 43.457, 171 36.873 C 186.222 33.628, 215.796 33.630, 231 36.877 C 272.488 45.738, 305.969 68.106, 329.132 102.436 C 354.458 139.973, 361.816 188.845, 348.470 230.887 C 346.264 237.838, 346.217 238.501, 347.671 242.137 C 348.522 244.262, 349.573 246, 350.007 246 C 352.247 246, 359.212 221.110, 361.043 206.563 C 362.697 193.426, 361.750 167.410, 359.186 155.500 C 354.871 135.463, 346.489 115.609, 334.911 98 C 326.479 85.176, 305.034 63.744, 292 55.114 C 259.707 33.732, 221.740 24.184, 184.589 28.100 M 180.303 56.410 C 160.454 63.272, 158.464 64.273, 154.301 69.490 C 152.760 71.420, 151.012 73, 150.415 73 C 148.649 73, 144.102 78.699, 144.254 80.722 C 144.331 81.749, 142.281 85.550, 139.699 89.169 L 135.003 95.750 135.664 114.024 C 136.264 130.573, 136.580 132.949, 139.007 139.189 C 141.340 145.183, 141.861 145.873, 143.010 144.488 C 144.112 143.160, 144.055 142.017, 142.666 137.610 C 141.224 133.034, 140.295 118.361, 141.662 121.750 C 142.636 124.164, 143.502 122.949, 143.739 118.840 C 144.015 114.035, 144.691 112.960, 146.135 115.029 C 146.859 116.066, 146.933 115.172, 146.388 112 C 145.498 106.814, 145.769 95.838, 146.814 94.789 C 147.203 94.398, 148.807 99.368, 150.377 105.834 L 153.232 117.590 149.559 124.882 C 143.975 135.972, 145.583 136.961, 152.346 126.596 L 158.156 117.692 155.912 111.596 C 154.678 108.243, 152.654 102.239, 151.413 98.253 L 149.157 91.006 155.748 82.753 C 159.374 78.214, 162.489 74.312, 162.670 74.083 C 163.439 73.112, 163.906 75.240, 165.942 89 C 168.884 108.877, 168.826 108.656, 171.530 110.428 L 173.934 112.003 172.072 108.752 C 171.047 106.963, 169.913 102.979, 169.551 99.899 L 168.893 94.298 179.598 82.649 C 189.345 72.042, 192.196 69.256, 190.508 71.987 C 190.172 72.530, 190.377 73.543, 190.963 74.237 C 196.204 80.449, 197.025 83.053, 198.996 99.715 C 200.075 108.832, 201.110 116.443, 201.296 116.629 C 201.482 116.816, 202.185 110.499, 202.857 102.591 C 204.250 86.196, 204.963 83.056, 208.190 79.100 C 209.461 77.542, 210.980 75.450, 211.568 74.450 C 213.010 71.993, 214.473 73.105, 224.795 84.500 C 232.727 93.257, 232.948 93.637, 232.974 98.581 C 232.991 102.013, 232.215 105.211, 230.580 108.441 L 228.160 113.221 231.025 110.476 C 233.255 108.340, 234.036 106.487, 234.549 102.116 C 235.417 94.720, 238.720 74.946, 239.161 74.505 C 239.352 74.315, 241.981 77.111, 245.004 80.718 C 254.349 91.870, 253.935 89.416, 249.007 104.480 L 244.653 117.785 247.778 122.642 C 256.349 135.968, 259.752 137.365, 253.112 124.831 L 249.217 117.480 252.058 106.624 C 253.620 100.654, 255.112 95.554, 255.374 95.293 C 256.506 94.161, 257.190 104.797, 256.301 109.702 C 255.335 115.033, 255.355 115.105, 258.663 118.009 C 262.597 121.463, 263.090 126.444, 260.409 135.665 C 258.887 140.901, 259.222 147.271, 260.921 145.395 C 261.366 144.903, 262.916 141.340, 264.365 137.479 C 266.666 131.348, 267 128.961, 267 118.663 C 267 105.596, 267.574 103.693, 271.979 102.157 C 274.991 101.107, 275 101.115, 275 104.862 C 275 106.930, 276.045 111.294, 277.323 114.560 C 287.683 141.052, 285.176 165.029, 269.177 192.468 C 264.997 199.636, 259.797 208.856, 257.620 212.958 L 253.662 220.416 259.918 214.958 C 274.658 202.098, 287.400 181.968, 292.174 164 C 295.642 150.949, 295.397 127.974, 291.660 115.703 C 285.827 96.548, 273.828 78.651, 260.026 68.519 C 254.299 64.315, 253.381 64.126, 255.671 67.621 C 257.535 70.465, 258.128 73.803, 256.905 74.559 C 256.483 74.819, 255.856 74.575, 255.510 74.016 C 255.165 73.457, 254.232 73, 253.438 73 C 252.644 73, 250.342 71.171, 248.323 68.935 C 246.303 66.700, 243.463 64.256, 242.011 63.506 C 237.106 60.969, 203.734 50, 201.107 50.060 C 199.673 50.093, 190.311 52.950, 180.303 56.410 M 141.983 69.350 C 107.547 97.068, 98.140 148.578, 120.358 187.760 C 124.008 194.197, 142.780 216.454, 143.780 215.531 C 144.351 215.005, 138.708 203, 137.890 203 C 137.423 203, 136.122 201.200, 135 199 C 133.878 196.800, 133.203 195, 133.500 195 C 134.540 195, 129.776 186.487, 127.905 185 C 126.867 184.175, 125.846 182.150, 125.638 180.500 C 125.429 178.850, 124.309 174.729, 123.149 171.341 C 117.874 155.937, 118.234 134.793, 124.061 117.824 C 125.837 112.650, 127.199 106.371, 127.425 102.315 C 127.662 98.051, 128.215 95.594, 128.902 95.750 C 129.506 95.887, 130.034 95.662, 130.077 95.250 C 130.494 91.162, 133.386 86.663, 140.305 79.343 C 142.777 76.727, 143.947 74.724, 143.462 73.939 C 142.936 73.087, 143.099 72.943, 143.975 73.485 C 144.836 74.017, 145.094 73.821, 144.757 72.889 C 144.481 72.125, 145.368 70.008, 146.729 68.184 C 150.411 63.248, 149.192 63.547, 141.983 69.350 M 176 70.497 C 170.775 72.315, 166.526 74.185, 166.557 74.652 C 167.003 81.298, 168.448 90, 169.106 90 C 169.853 90, 181.015 77.359, 186.987 69.750 C 189.871 66.075, 188.422 66.173, 176 70.497 M 217.563 71.750 C 219.103 73.813, 223.313 79.031, 226.919 83.346 L 233.474 91.192 234.122 87.846 C 234.478 86.006, 235.052 82.213, 235.397 79.417 L 236.024 74.335 226.762 71.155 C 214.805 67.051, 214.089 67.097, 217.563 71.750 M 177.276 111.641 C 178.618 113.763, 182.172 119.325, 185.173 124 C 188.175 128.675, 191.016 133.144, 191.486 133.931 C 191.957 134.719, 190.678 134.093, 188.644 132.542 C 186.610 130.990, 184.679 129.987, 184.354 130.313 C 184.028 130.638, 183.126 130.269, 182.349 129.492 C 181.572 128.714, 179.263 127.781, 177.218 127.418 C 175.173 127.054, 172.037 125.875, 170.250 124.797 C 166.995 122.834, 165.902 123.445, 168.250 125.914 C 169.060 126.766, 168.373 126.660, 166.300 125.614 C 162.667 123.782, 159.411 123.526, 158.500 125 C 158.160 125.550, 158.270 126, 158.743 126 C 159.217 126, 166.723 130.073, 175.423 135.050 C 184.123 140.028, 191.926 143.965, 192.764 143.800 C 193.602 143.635, 195.189 142.291, 196.291 140.814 L 198.294 138.129 191.192 128.064 C 187.285 122.529, 184.412 118, 184.808 118 C 185.203 118, 187.883 119.587, 190.763 121.527 C 198.463 126.712, 197.180 125.197, 186.750 116.788 C 175.025 107.334, 174.308 106.945, 177.276 111.641 M 225.566 108.893 C 225.218 109.457, 220.370 113.312, 214.795 117.459 C 203.939 125.533, 202.483 127.376, 211.798 121.250 C 214.934 119.188, 218.139 117.097, 218.920 116.605 C 219.701 116.113, 218.330 118.363, 215.873 121.605 C 210.480 128.723, 205 137.313, 205 138.649 C 205 140.105, 208.891 144, 210.347 144 C 211.044 144, 217.437 140.603, 224.552 136.451 C 235.745 129.919, 237.798 129.043, 239.791 129.951 C 243.060 131.440, 243.965 131.187, 241.082 129.590 L 238.664 128.250 240.832 127.090 C 242.024 126.452, 243 125.495, 243 124.965 C 243 123.542, 238.873 123.857, 236 125.500 C 232.593 127.448, 231.480 127.351, 233.128 125.250 C 234.319 123.731, 234.302 123.642, 233 124.575 C 232.175 125.166, 229.700 126.179, 227.500 126.825 C 224.763 127.629, 222.589 129.240, 220.614 131.927 C 217.849 135.687, 209 140.150, 209 137.783 C 209 137.265, 213.065 130.516, 218.032 122.786 C 223 115.056, 226.870 108.537, 226.633 108.299 C 226.395 108.061, 225.915 108.328, 225.566 108.893 M 153.327 135.777 C 152.020 136.608, 149 148.573, 149 152.923 C 149 154.462, 150.125 157.379, 151.500 159.405 C 155.643 165.510, 154.602 167.007, 149.617 162.115 C 146.525 159.080, 145.008 158.178, 144.468 159.051 C 143.496 160.625, 152.882 169.062, 155 168.518 C 163.086 166.442, 178.457 164.804, 180.119 165.842 C 181.621 166.780, 182 166.737, 182 165.631 C 182 164.869, 182.674 163.685, 183.499 163.001 C 185.636 161.228, 194.137 147, 193.060 147 C 190.842 147, 188.890 148.442, 187.026 151.457 C 185.064 154.633, 184.752 154.746, 174.823 155.875 C 169.219 156.512, 164.252 156.652, 163.785 156.185 C 163.319 155.719, 164.414 155.505, 166.219 155.709 L 169.500 156.082 166.225 154.579 C 164.424 153.752, 162.174 151.675, 161.225 149.964 C 160.276 148.252, 158.713 145.916, 157.750 144.773 C 156.747 143.581, 156 141.052, 156 138.847 C 156 134.980, 155.494 134.399, 153.327 135.777 M 246.673 139.250 C 245.987 144.122, 239.454 157.009, 237.683 156.982 C 235.659 156.951, 217.793 154.132, 217.567 153.807 C 217.449 153.638, 216.342 152.037, 215.108 150.250 C 213.457 147.858, 212.105 147, 209.991 147 C 208.411 147, 206.840 146.550, 206.500 146 C 206.160 145.450, 205.450 145, 204.922 145 C 203.493 145, 204.820 149.786, 207.970 156 C 209.504 159.025, 211.280 163.133, 211.917 165.129 C 212.554 167.125, 214.018 169.600, 215.171 170.629 C 217.245 172.481, 217.259 172.475, 216.548 170 C 216.153 168.625, 214.968 165.121, 213.915 162.212 C 211.123 154.502, 211.477 154.216, 216.801 159.886 C 220.438 163.760, 222.317 165.008, 224.551 165.031 C 226.173 165.049, 232.435 165.917, 238.466 166.962 L 249.432 168.861 253.602 165.180 C 255.896 163.156, 258.019 160.825, 258.319 160 C 258.619 159.175, 258.706 159.988, 258.511 161.806 C 258.151 165.166, 257.053 167.180, 252.708 172.445 L 250.278 175.389 242.889 173.265 C 229.399 169.387, 228.702 169.383, 225.857 173.172 C 221.575 178.875, 221.519 179.480, 225.575 176.243 L 229.500 173.111 239.344 176.555 C 244.758 178.450, 249.817 180, 250.586 180 C 252.016 180, 265.247 163.888, 265.812 161.458 C 266.217 159.718, 256.099 146.820, 254.907 147.557 C 253.384 148.499, 253.892 152.039, 255.968 154.954 L 257.935 157.717 254.063 160.829 C 249.991 164.102, 247.777 163.205, 250.448 159.365 C 252.684 156.149, 253.144 151.495, 251.928 144.377 C 250.206 134.292, 247.714 131.860, 246.673 139.250 M 194.449 148.898 C 191.600 153.203, 185 170.168, 185 173.186 C 185 174.704, 185.356 174.900, 186.726 174.134 C 188.103 173.363, 189.129 173.959, 191.804 177.084 C 195.926 181.900, 196.523 181.924, 199.208 177.372 L 201.348 173.744 203.424 177.362 C 204.566 179.352, 205.844 180.985, 206.264 180.990 C 207.702 181.009, 212.941 174.503, 212.971 172.662 C 213.035 168.647, 202.824 148.026, 200.762 148.007 C 200.356 148.003, 198.195 151.488, 195.960 155.750 C 191.451 164.349, 191.448 163.939, 195.940 153.146 C 199.393 144.847, 199.355 145, 198.014 145 C 197.472 145, 195.868 146.754, 194.449 148.898 M 141.177 154.048 C 135.887 160.987, 135.866 161.044, 137.677 163.370 C 138.680 164.657, 142.086 169.075, 145.246 173.188 L 150.991 180.667 162.161 176.814 C 173.131 173.031, 173.368 172.996, 175.415 174.832 C 179.207 178.234, 180.464 178.461, 178.243 175.342 C 174.220 169.692, 173.925 169.620, 164.801 172.062 C 151.135 175.721, 152.169 175.934, 146.416 168.272 L 141.331 161.500 144.666 157.172 C 147.699 153.235, 149.303 146.942, 147.250 147.033 C 146.838 147.052, 144.105 150.208, 141.177 154.048 M 197.124 162.147 C 194.856 166.903, 193.015 171.403, 193.033 172.147 C 193.085 174.233, 197.209 178.731, 197.724 177.263 C 197.963 176.583, 198.964 175.031, 199.950 173.814 L 201.742 171.600 203.397 174.800 C 205.412 178.698, 205.368 178.696, 207.960 175.055 L 210.057 172.111 205.652 162.805 L 201.247 153.500 197.124 162.147 M 139.467 184.157 C 146.282 198.909, 152.001 216.344, 151.996 222.361 C 151.992 227.663, 151.522 228.673, 144.606 238.226 C 139.042 245.910, 138.696 254.109, 143.687 260.039 C 145.071 261.685, 149.420 264.899, 153.352 267.182 C 157.283 269.466, 161.892 272.384, 163.594 273.667 C 167.282 276.447, 169.179 276.681, 168.317 274.250 C 167.228 271.180, 164.677 268.897, 157.708 264.757 C 147.437 258.655, 145 256.027, 145 251.049 C 145 246.586, 146.852 242.212, 150.688 237.616 C 157.019 230.033, 158.357 223.082, 155.438 212.932 C 153.350 205.669, 141.715 182.383, 137.984 178 C 135.165 174.689, 135.245 175.021, 139.467 184.157 M 262.241 183.750 C 249.847 200.658, 238.912 218.565, 236.745 225.500 C 234.208 233.623, 234.033 236.324, 235.574 243.597 C 236.379 247.393, 236.941 253.750, 236.824 257.722 C 236.574 266.236, 237.389 267.707, 239.525 262.596 C 241.487 257.899, 241.600 252.231, 239.937 241.989 C 238.005 230.094, 237.663 230.905, 264.935 182.750 C 269.249 175.132, 268.301 175.484, 262.241 183.750 M 170.792 181.250 C 172.038 183.321, 172.960 187.214, 173.335 191.984 C 173.841 198.432, 174.265 199.718, 176.395 201.269 C 177.755 202.260, 180.494 205.979, 182.482 209.535 C 184.471 213.091, 186.337 216, 186.629 216 C 187.434 216, 185.961 196.053, 184.826 191.578 C 183.461 186.199, 182.035 188.684, 182.015 196.477 L 182 202.455 179.528 199.977 C 177.509 197.954, 176.935 196.125, 176.398 190 C 175.728 182.356, 173.494 178, 170.244 178 C 169.147 178, 169.267 178.716, 170.792 181.250 M 228.687 180.805 C 226.351 183.243, 225.995 184.452, 225.959 190.055 C 225.923 195.780, 225.578 196.891, 222.866 200 L 219.814 203.500 220.475 199.369 C 221.188 194.913, 220.278 188, 218.979 188 C 217.621 188, 215.887 201.113, 216.201 209.004 L 216.500 216.500 219.353 211 C 220.923 207.975, 223.680 203.925, 225.479 202 C 228.384 198.894, 228.824 197.656, 229.393 191 C 229.834 185.839, 230.662 182.642, 232.047 180.750 C 234.785 177.009, 232.285 177.049, 228.687 180.805 M 211.157 191.870 C 207.813 204.071, 208.351 208.585, 212.590 203.900 C 214.020 202.321, 214.436 200.526, 214.270 196.650 C 214.149 193.818, 213.994 189.813, 213.925 187.750 C 213.856 185.688, 213.691 184, 213.557 184 C 213.423 184, 212.343 187.542, 211.157 191.870 M 189.142 189 C 189.077 190.375, 188.780 193.525, 188.482 196 C 187.912 200.729, 189.392 204.976, 191.898 205.804 C 193.032 206.178, 193.196 205.062, 192.769 199.883 C 192.189 192.851, 189.362 184.367, 189.142 189 M 196.607 192.582 C 196.273 193.452, 196 197.061, 196 200.603 C 196 206.450, 196.224 207.145, 198.426 208.148 C 201.763 209.669, 205.631 208.506, 206.367 205.761 C 207.368 202.026, 207.078 195.014, 205.827 192.684 C 204.695 190.578, 204.591 190.641, 202.915 194.430 L 201.177 198.360 199.640 194.680 C 197.928 190.583, 197.490 190.280, 196.607 192.582 M 310.103 207.519 C 309.419 213.558, 307.744 227.950, 306.379 239.500 C 305.015 251.050, 303.237 266.125, 302.428 273 C 300.762 287.175, 300.193 289.555, 300.079 282.827 C 300.036 280.257, 298.879 270.582, 297.509 261.327 C 296.139 252.072, 295.014 243.262, 295.009 241.750 C 295.004 240.238, 294.550 239, 294 239 C 293.450 239, 292.970 241.588, 292.932 244.750 C 292.830 253.410, 291.524 249.037, 288.544 230.065 C 287.124 221.025, 285.797 213.463, 285.593 213.260 C 285.118 212.785, 283.743 221.026, 280.466 244 C 279.015 254.175, 277.586 263.175, 277.291 264 C 276.498 266.214, 275.420 261.756, 272.461 244.023 C 269.049 223.575, 268.598 222.602, 267.132 232.517 C 264.841 248.007, 261.766 262.974, 260.975 262.485 C 260.534 262.212, 259.835 260.079, 259.420 257.745 C 258.740 253.915, 258.594 253.745, 257.933 256 C 257.529 257.375, 257.155 259.962, 257.100 261.750 C 256.901 268.240, 255.211 264.745, 252.990 253.250 C 249.975 237.644, 249.466 237.058, 248.074 247.598 C 247.427 252.494, 246.460 258.525, 245.924 261 C 245.203 264.336, 245.308 266.664, 246.332 270 C 247.841 274.914, 247.721 275.052, 249.578 266.264 C 250.377 262.487, 251.341 264.558, 253.416 274.500 C 256.359 288.606, 257.217 292.117, 257.622 291.712 C 257.840 291.494, 259.397 285.282, 261.083 277.908 C 264.487 263.015, 265.515 260.898, 266.581 266.581 L 267.302 270.423 269.029 264.961 L 270.756 259.500 271.824 263.500 C 272.912 267.573, 275.991 284.609, 275.997 286.588 C 275.999 287.187, 271.725 290.095, 266.500 293.052 C 261.275 296.009, 257 299.055, 257 299.821 C 257 301.777, 258.745 300.924, 267.954 294.472 C 272.359 291.385, 276.309 289.025, 276.732 289.228 C 277.154 289.431, 278.709 288.338, 280.186 286.799 C 282.719 284.159, 282.748 282.652, 280.217 285.183 C 279.566 285.834, 278.849 286.172, 278.624 285.933 C 278.100 285.378, 280.416 269.275, 282.785 257 L 284.619 247.500 286.300 258.500 C 287.224 264.550, 288.505 273.750, 289.146 278.945 C 290.386 288.989, 291.183 288.922, 292.446 278.666 C 292.842 275.457, 293.397 273.064, 293.681 273.348 C 293.965 273.631, 295.261 281.407, 296.562 290.626 C 297.862 299.846, 299.219 308.719, 299.576 310.346 L 300.225 313.303 295.473 312.651 C 292.859 312.293, 289.659 312, 288.360 312 C 284.451 312, 285.685 310.387, 291.197 308.293 C 294.055 307.207, 296.574 305.777, 296.795 305.116 C 297.264 303.707, 295.122 304.127, 284 307.619 C 279.875 308.915, 275.712 309.980, 274.750 309.987 C 273.788 309.994, 273 310.450, 273 311 C 273 311.550, 274.462 311.999, 276.250 311.999 C 280.349 311.997, 293.017 313.588, 308.500 316.049 C 334.494 320.181, 348.195 322.102, 349.224 321.759 C 351.815 320.895, 306.840 311.547, 303.852 312.328 C 302.279 312.740, 302 312.215, 302 308.849 C 302 304.896, 302.019 304.877, 309.130 301.736 C 317.006 298.258, 316.887 296.880, 308.940 299.520 C 306.152 300.446, 303.668 301.001, 303.421 300.754 C 303.174 300.507, 304.890 285.049, 307.236 266.402 C 310.289 242.130, 311.672 233.636, 312.104 236.500 C 312.437 238.700, 314.604 253.325, 316.919 269 C 322.612 307.533, 321.943 306.420, 325.965 284.048 C 327.853 273.548, 329.706 265.530, 330.083 266.229 C 330.460 266.928, 331.346 270.778, 332.051 274.784 C 332.756 278.790, 333.647 281.715, 334.031 281.284 C 334.416 280.853, 335.749 275.212, 336.995 268.750 C 338.241 262.288, 339.396 257, 339.562 257 C 339.728 257, 340.604 260.488, 341.508 264.750 C 343.887 275.960, 343.961 276.064, 345.969 271 L 347.754 266.500 355.127 265.764 C 365.978 264.680, 366.268 264.453, 357.874 263.614 C 350.427 262.870, 350.223 262.778, 349.249 259.676 L 348.251 256.500 347.028 259.750 C 345.138 264.772, 344.343 263.738, 342.536 253.904 C 341.617 248.901, 340.494 243.839, 340.040 242.654 C 339.040 240.041, 338.944 240.365, 336.403 255 C 335.495 260.225, 334.428 265.108, 334.030 265.851 C 333.630 266.599, 332.082 260.796, 330.563 252.851 C 329.053 244.958, 327.571 237.825, 327.270 237 C 326.730 235.524, 325.360 242.974, 322.985 260.306 C 322.321 265.149, 321.616 268.949, 321.417 268.751 C 320.966 268.299, 317.841 245.828, 314.499 219 C 313.095 207.725, 311.810 198.058, 311.646 197.519 C 311.481 196.979, 310.786 201.479, 310.103 207.519 M 90.679 200 C 90.336 201.375, 88.667 213.300, 86.968 226.500 C 85.270 239.700, 83.304 254.550, 82.600 259.500 L 81.320 268.500 80.566 263.500 C 77.855 245.533, 76.071 234.738, 75.761 234.428 C 75.564 234.231, 74.120 240.818, 72.553 249.067 C 70.986 257.316, 69.428 264.236, 69.090 264.444 C 68.752 264.653, 67.420 259.212, 66.131 252.353 C 64.841 245.493, 63.569 240.098, 63.305 240.362 C 63.040 240.627, 61.791 245.626, 60.529 251.471 C 59.267 257.317, 57.979 262.354, 57.667 262.666 C 57.356 262.978, 56.485 261.723, 55.732 259.877 L 54.362 256.522 53.286 259.611 C 52.153 262.859, 48.491 264, 39.194 264 C 32.625 264, 36.672 265.053, 46.031 265.778 L 55.339 266.500 56.790 270.863 C 58.544 276.135, 59.369 275.207, 61.050 266.069 C 62.978 255.590, 63.562 255.917, 66.058 268.873 C 67.343 275.543, 68.675 281, 69.017 281 C 69.359 281, 70.224 277.400, 70.939 273 C 71.653 268.600, 72.535 265, 72.899 265 C 73.262 265, 74.374 269.837, 75.369 275.750 C 78.352 293.483, 80.215 303.118, 80.588 302.745 C 80.782 302.552, 82.531 290.942, 84.476 276.947 C 89.881 238.051, 90.734 234.412, 92.382 243.239 C 93.054 246.838, 98.130 287.086, 100.132 304.684 C 100.832 310.835, 101.704 315.683, 102.071 315.456 C 102.437 315.230, 103.049 311.884, 103.429 308.022 C 104.207 300.131, 103.964 300.271, 112.500 302.817 C 117.873 304.420, 118.535 304.910, 118.836 307.504 C 119.061 309.444, 118.565 310.847, 117.336 311.750 C 115.760 312.908, 116.490 313.002, 122.500 312.418 C 131.469 311.545, 134.381 310.072, 127.219 310.030 C 123.401 310.008, 121.773 309.572, 121.345 308.457 C 120.344 305.849, 121.804 305.573, 127.350 307.321 C 133.284 309.192, 136 309.441, 136 308.114 C 136 307.357, 125.625 304.215, 109.250 300.013 C 104.266 298.735, 104.350 299.326, 106.906 283.500 C 108.669 272.579, 108.687 272.536, 109.383 277.500 C 111.086 289.641, 111.510 288.989, 113.929 270.499 C 115.223 260.599, 116.594 251.638, 116.975 250.584 C 117.417 249.361, 118.630 253.699, 120.330 262.584 C 125.407 289.115, 125.382 288.232, 120.973 285.428 C 117.028 282.919, 124.722 289.559, 133.312 296.074 C 137.608 299.333, 141.583 302, 142.145 302 C 144.647 302, 141.799 299.094, 134.451 294.148 C 130.078 291.205, 126.346 288.380, 126.157 287.870 C 125.641 286.474, 131.301 261.068, 132.028 261.517 C 132.375 261.732, 133.258 264.405, 133.990 267.459 C 135.447 273.532, 135.795 273.636, 137.553 268.523 C 138.592 265.502, 138.448 264.501, 136.372 260.292 C 135.072 257.656, 133.718 252.688, 133.362 249.250 C 133.006 245.813, 132.380 243, 131.969 243 C 131.559 243, 130.231 247.162, 129.018 252.250 C 125.615 266.518, 125.854 265.848, 125.002 263.484 C 124.609 262.393, 122.786 251.934, 120.951 240.243 C 119.115 228.552, 117.313 219.327, 116.945 219.743 C 116.577 220.159, 115.244 227.025, 113.983 235 C 111.028 253.683, 110.509 255.073, 109.514 246.954 L 108.723 240.500 107.480 248.500 C 106.797 252.900, 105.416 262.012, 104.411 268.750 C 103.406 275.488, 102.310 281, 101.975 281 C 101.641 281, 100.133 270.313, 98.625 257.250 C 93.630 214.001, 91.326 197.402, 90.679 200 M 169.067 215.129 C 169.763 216.433, 172.049 220.305, 174.146 223.733 C 187.721 245.928, 189.624 254.442, 184.103 268.276 C 178.306 282.802, 180.007 287.014, 196.262 298.387 C 203.288 303.303, 208.520 309.459, 213.961 319.211 C 217.434 325.436, 223.040 331, 225.841 331 C 226.815 331, 229.146 332.132, 231.023 333.517 C 233.517 335.357, 235.652 336.023, 238.967 335.994 C 241.460 335.973, 244.625 336.002, 246 336.059 C 252.655 336.334, 266.047 335.210, 267.201 334.279 C 267.915 333.703, 269.916 332.928, 271.646 332.559 C 275.570 331.721, 278.250 328.856, 278.250 325.500 C 278.250 322.411, 275.401 319, 272.822 319 C 270.476 319, 255.914 310.602, 253.140 307.649 C 252.002 306.438, 247.775 298.259, 243.747 289.473 C 239.719 280.688, 231.653 265.175, 225.824 255 C 219.994 244.825, 212.695 231.438, 209.604 225.250 C 206.210 218.457, 203.392 214, 202.492 214 C 200.494 214, 200.578 214.616, 203.589 222.027 C 207.538 231.744, 213.122 242.461, 221.080 255.590 C 225.051 262.140, 232.697 276.522, 238.072 287.548 C 246.113 304.045, 248.611 308.270, 252.172 311.403 C 257.678 316.245, 267.588 322, 270.421 322 C 275.017 322, 276.541 326.341, 272.579 328.146 C 270.410 329.134, 269.810 328.853, 266.829 325.458 C 264.998 323.373, 263.500 321.179, 263.500 320.583 C 263.500 319.987, 261.475 319.411, 259 319.302 L 254.500 319.103 256.959 320.802 C 262.784 324.826, 265.095 327.330, 264.802 329.304 C 264.367 332.244, 262.166 332.557, 261.107 329.831 C 259.615 325.992, 250.789 318.877, 249.329 320.338 C 249.054 320.613, 249.759 321.336, 250.895 321.944 C 253.383 323.275, 258.121 329.996, 257.397 331.167 C 256.206 333.094, 253.171 331.749, 250.918 328.294 C 249.588 326.256, 246.925 323.680, 245 322.570 L 241.500 320.551 245.282 324.992 C 247.361 327.435, 248.931 330.118, 248.770 330.955 C 248.339 333.192, 245.357 333.396, 243.568 331.311 C 242.713 330.315, 240.413 327.700, 238.458 325.500 L 234.903 321.500 236.952 325.485 C 238.078 327.677, 239 330.040, 239 330.735 C 239 332.722, 234.503 332.213, 232.500 330 C 231.505 328.900, 229.972 327.998, 229.095 327.996 C 225.323 327.987, 221.343 324.022, 216.704 315.651 C 211.290 305.879, 204.423 298.358, 195.248 292.152 C 184.846 285.115, 183.592 281.152, 188.200 269.868 C 189.630 266.365, 191.119 262.600, 191.508 261.500 L 192.215 259.500 193.037 261.500 C 193.660 263.014, 193.877 262.468, 193.930 259.250 C 193.968 256.913, 193.567 255, 193.039 255 C 192.510 255, 191.433 252.829, 190.645 250.177 C 188.560 243.155, 184.645 235.840, 176.769 224.248 C 170.168 214.533, 166.306 209.960, 169.067 215.129 M 160.741 225.332 C 158.874 229.946, 159.909 235.674, 163.190 238.881 C 167.250 242.851, 169.324 242.992, 165.539 239.040 C 163.255 236.657, 162.584 234.856, 162.093 229.790 C 161.688 225.618, 161.233 224.117, 160.741 225.332 M 230.049 230.244 C 229.349 232.585, 227.918 236.188, 226.868 238.250 C 224.538 242.827, 226.263 243.261, 228.986 238.783 C 230.861 235.699, 232.740 227.407, 231.781 226.447 C 231.528 226.194, 230.748 227.903, 230.049 230.244 M 195.731 252.332 C 195.329 253.339, 195 256.655, 195 259.699 C 195 264.797, 195.308 265.543, 198.882 269.118 C 201.216 271.451, 203.709 272.997, 205.132 272.993 C 207.440 272.987, 207.426 272.938, 204.605 271.078 C 200.249 268.206, 197.973 263.839, 197.178 256.822 C 196.701 252.611, 196.217 251.112, 195.731 252.332 M 174.077 269.750 C 170.163 275.663, 163.482 286.107, 159.231 292.960 C 152.161 304.356, 150.860 305.872, 144.005 310.710 C 139.883 313.620, 135.721 316, 134.755 316 C 132.085 316, 129 319.658, 129 322.826 C 129 326.588, 132.860 330.093, 137.476 330.522 C 139.485 330.709, 141.729 331.360, 142.463 331.969 C 143.196 332.578, 145.305 333.085, 147.148 333.095 C 150.572 333.114, 156.807 333.133, 159.500 333.133 C 160.325 333.133, 162.688 333.116, 164.750 333.095 C 166.813 333.073, 170.446 333.064, 172.824 333.073 C 175.881 333.085, 178.417 332.271, 181.475 330.295 C 183.854 328.758, 187.113 326.781, 188.717 325.902 C 190.321 325.023, 193.790 321.218, 196.427 317.446 C 202.206 309.179, 202.533 308.419, 200.628 307.688 C 199.616 307.299, 197.445 309.410, 193.821 314.309 C 190.894 318.264, 187.086 322.207, 185.358 323.071 C 183.629 323.935, 180.782 325.847, 179.031 327.321 C 172.828 332.540, 170.440 330.028, 174.855 322.927 C 176.539 320.217, 177.533 318, 177.062 318 C 176.183 318, 171.888 322.839, 168.703 327.417 C 167.153 329.646, 162 331.222, 162 329.468 C 162 327.766, 165.040 322.219, 166.862 320.595 C 170.126 317.687, 169.407 316.574, 165.885 319.082 C 164.171 320.302, 161.587 323.258, 160.142 325.650 C 158.060 329.096, 156.942 330, 154.757 330 C 153.241 330, 152 329.534, 152 328.965 C 152 327.435, 154.946 322.946, 158.376 319.250 C 160.035 317.462, 160.957 316, 160.424 316 C 158.438 316, 151.873 322.329, 149.951 326.097 C 147.754 330.403, 147.251 330.635, 144.497 328.621 C 142.689 327.299, 142.683 327.132, 144.360 324.573 C 145.323 323.104, 147.868 320.687, 150.017 319.201 C 155.523 315.395, 154.939 314.491, 148.938 317.532 C 145.802 319.121, 143.101 321.410, 141.839 323.548 C 139.350 327.767, 135.823 328.185, 133.437 324.544 C 131.485 321.565, 132.046 320.441, 135.862 319.678 C 139.136 319.023, 150.240 311.561, 154.614 307.076 C 161.465 300.051, 184.612 259, 181.722 259 C 181.431 259, 177.991 263.837, 174.077 269.750 M 140.361 267.498 C 140.677 268.321, 141.929 273.732, 143.144 279.521 C 144.359 285.311, 145.654 289.699, 146.022 289.274 C 147.360 287.727, 150.100 272.533, 149.102 272.201 C 148.558 272.019, 146.450 270.550, 144.419 268.935 C 140.236 265.611, 139.543 265.366, 140.361 267.498 M 277.808 300.848 C 269.727 302.856, 262.790 304.837, 262.391 305.250 C 259.913 307.816, 274.863 304.383, 294 297.993 C 300.277 295.896, 291.500 297.444, 277.808 300.848 M 73.917 306.600 C 72.226 308.638, 73.201 309.220, 79.228 309.773 C 85.055 310.308, 85.015 309.581, 79.071 306.921 C 75.639 305.384, 74.961 305.342, 73.917 306.600 M 318.623 309.554 C 309.339 311.399, 309.241 312, 318.223 312 C 324.269 312, 326.250 311.607, 328.139 310.033 L 330.500 308.067 328 308.127 C 326.625 308.161, 322.405 308.803, 318.623 309.554 M 79 316.264 L 73.500 317.290 79 318.603 C 82.025 319.325, 85.513 319.934, 86.750 319.958 C 90.321 320.025, 89.359 318.015, 85.750 317.868 C 83.963 317.796, 86.550 317.186, 91.500 316.513 L 100.500 315.290 92.500 315.264 C 88.100 315.249, 82.025 315.699, 79 316.264 M 106.633 319.816 L 92.766 322.425 101.433 324.095 C 111.251 325.987, 111.826 326.296, 109.893 328.638 C 109.038 329.674, 108.950 330.166, 109.665 329.913 C 110.908 329.473, 123 318.152, 123 317.429 C 123 316.790, 121.742 316.973, 106.633 319.816 M 66 319.863 L 61.500 321.495 64.768 321.812 C 66.565 321.987, 69.177 321.988, 70.571 321.815 C 72.771 321.542, 72.934 321.284, 71.803 319.865 C 70.597 318.352, 70.164 318.352, 66 319.863 M 284 319.531 C 284 320.374, 284.563 321.220, 285.250 321.411 C 288.840 322.412, 312.201 325.132, 312.723 324.610 C 313.059 324.275, 312.914 324, 312.402 324 C 311.889 324, 305.482 322.650, 298.165 321 C 282.535 317.476, 284 317.628, 284 319.531 M 75 326.954 C 48.880 332.445, 51.314 333.395, 78.719 328.406 C 85.990 327.083, 92.515 325.993, 93.219 325.985 C 94.114 325.974, 94.048 325.677, 93 325 C 90.939 323.668, 90.304 323.737, 75 326.954 M 292.668 328.105 C 290.560 329.852, 287.898 331.330, 286.751 331.390 C 282.220 331.628, 284.140 333.882, 290.699 336.025 C 294.440 337.248, 297.844 338.558, 298.264 338.938 C 299.115 339.706, 285.076 343.250, 281.179 343.250 C 279.187 343.250, 279.013 343.428, 280.300 344.148 C 282.154 345.185, 295.314 342.549, 298.586 340.485 C 300.405 339.337, 302.390 339.731, 314.038 343.549 C 321.389 345.959, 327.551 347.782, 327.732 347.601 C 327.913 347.420, 321.185 344.673, 312.781 341.497 C 287.775 332.045, 288.679 332.633, 296.965 331.219 L 301.314 330.476 298.907 327.703 L 296.500 324.929 292.668 328.105 M 205.065 330.379 C 204.293 331.821, 202.838 333, 201.831 333 C 200.220 333, 200 333.896, 200 340.464 L 200 347.929 195.417 345.964 C 189.964 343.627, 190 343.631, 190 345.367 C 190 346.118, 192.250 347.668, 195 348.811 C 199.899 350.847, 200 350.976, 200.015 355.195 C 200.024 357.563, 200.421 360.116, 200.898 360.869 C 201.433 361.714, 202.043 357.603, 202.493 350.109 C 202.894 343.438, 203.609 337.742, 204.082 337.449 C 204.554 337.157, 206.304 337.623, 207.971 338.485 C 211.725 340.426, 211.856 339.405, 208.721 332.629 L 206.467 327.758 205.065 330.379 M 101.500 338.590 C 76.716 348.657, 76.254 348.855, 77.339 348.937 C 78.382 349.016, 120.839 334.145, 123.278 332.846 C 124.900 331.983, 124.838 329.958, 123.191 330.030 C 122.811 330.047, 113.050 333.899, 101.500 338.590 M 88 331.809 C 88 332.254, 88.594 333.429, 89.319 334.422 C 90.583 336.150, 90.813 336.136, 94.819 334.092 C 97.119 332.919, 99 331.743, 99 331.480 C 99 331.216, 96.525 331, 93.500 331 C 90.475 331, 88 331.364, 88 331.809 M 180.302 339.965 C 173.398 345.872, 155.852 362.671, 158 361.317 C 161.457 359.137, 180.808 342.888, 184.453 339.104 C 189.931 333.417, 187.322 333.958, 180.302 339.965 M 219 337.507 C 219 338.283, 237.097 363, 237.665 363 C 237.939 363, 237.293 361.538, 236.231 359.750 C 235.168 357.962, 232.656 353.741, 230.649 350.369 C 228.642 346.997, 227 343.988, 227 343.682 C 227 343.041, 240.075 348.790, 241.343 349.988 C 241.806 350.427, 241.657 351.772, 241.012 352.978 C 240.366 354.184, 240.066 355.400, 240.345 355.679 C 240.624 355.958, 241.558 354.822, 242.419 353.156 L 243.986 350.126 235.580 345.048 C 225.561 338.997, 219 336.012, 219 337.507 M 132.749 339.573 L 136.998 341.166 120.749 351.668 C 105.635 361.437, 97.918 366.989, 106 362.281 C 113.167 358.105, 132.717 347.216, 138.973 343.915 L 145.445 340.500 140.473 339.887 C 137.738 339.550, 133.925 338.983, 132 338.627 C 128.733 338.023, 128.783 338.086, 132.749 339.573 M 126 341.069 C 126 341.893, 124.779 342.060, 122 341.616 C 116.913 340.803, 116.948 341.422, 122.136 344.069 C 125.486 345.778, 126.433 345.925, 127.120 344.840 C 128.264 343.035, 128.215 341.251, 127 340.500 C 126.450 340.160, 126 340.416, 126 341.069 M 262.083 342.363 C 263.155 343.297, 300.409 362.221, 299.755 361.499 C 299.345 361.047, 292.145 356.477, 283.755 351.343 C 272.369 344.377, 267.633 342.009, 265.083 342.005 C 263.204 342.002, 261.854 342.163, 262.083 342.363 M 250.460 343.935 C 250.850 344.567, 252.932 345.789, 255.085 346.651 C 259.267 348.324, 259.671 348.929, 257.833 350.767 C 255.971 352.629, 259.379 353.389, 262.428 351.792 L 265.021 350.433 259.571 347.303 C 253.148 343.614, 249.407 342.231, 250.460 343.935 M 151.276 350.654 C 150.183 351.096, 151.024 353.266, 153.708 356.927 C 154.046 357.389, 156.410 354.572, 158.052 351.750 C 158.938 350.227, 158.644 350.010, 155.785 350.079 C 153.978 350.122, 151.949 350.381, 151.276 350.654" stroke="none" fill="#000000" fill-rule="evenodd"/>
</svg>